<svg width="1286" height="943" viewBox="0 0 1286 943" fill="none" xmlns="http://www.w3.org/2000/svg">
<g clip-path="url(#clip0_577_22)">
<circle cx="924" cy="520" r="90.5" stroke="#334155" stroke-dasharray="2 2"/>
<rect x="974.5" y="326.5" width="81" height="33" stroke="#334155" stroke-dasharray="2 2"/>
<path d="M352.343 443.519L319 410.012L385.686 343H497.314L564 410.012L530.657 443.519L497.314 410.012V520H385.686V410.012L352.343 443.519Z" stroke="#334155" stroke-dasharray="2 2"/>
<path d="M563.772 430.555C563.526 430.681 563.429 430.983 563.555 431.228L565.611 435.231C565.737 435.477 566.038 435.574 566.284 435.448C566.53 435.322 566.627 435.02 566.5 434.775L564.673 431.216L568.231 429.389C568.477 429.263 568.574 428.962 568.448 428.716C568.322 428.47 568.02 428.373 567.775 428.5L563.772 430.555ZM760.228 494.445C760.474 494.319 760.571 494.017 760.445 493.772L758.389 489.769C758.263 489.523 757.962 489.426 757.716 489.552C757.47 489.678 757.373 489.98 757.5 490.225L759.327 493.784L755.769 495.611C755.523 495.737 755.426 496.038 755.552 496.284C755.678 496.53 755.98 496.627 756.225 496.5L760.228 494.445ZM563.847 431.476L564.808 431.785L565.114 430.833L564.153 430.524L563.847 431.476ZM566.729 432.402L568.651 433.02L568.957 432.068L567.035 431.45L566.729 432.402ZM570.572 433.638L572.494 434.255L572.8 433.303L570.878 432.686L570.572 433.638ZM574.416 434.873L576.337 435.491L576.643 434.539L574.722 433.921L574.416 434.873ZM578.259 436.108L580.18 436.726L580.486 435.774L578.565 435.156L578.259 436.108ZM582.102 437.344L584.023 437.961L584.329 437.009L582.408 436.392L582.102 437.344ZM585.945 438.579L587.867 439.197L588.173 438.245L586.251 437.627L585.945 438.579ZM589.788 439.814L591.71 440.432L592.016 439.48L590.094 438.862L589.788 439.814ZM593.631 441.05L595.553 441.667L595.859 440.715L593.937 440.098L593.631 441.05ZM597.474 442.285L599.396 442.902L599.702 441.95L597.78 441.333L597.474 442.285ZM601.318 443.52L603.239 444.138L603.545 443.186L601.624 442.568L601.318 443.52ZM605.161 444.755L607.082 445.373L607.388 444.421L605.467 443.803L605.161 444.755ZM609.004 445.991L610.925 446.608L611.231 445.656L609.31 445.039L609.004 445.991ZM612.847 447.226L614.769 447.844L615.075 446.892L613.153 446.274L612.847 447.226ZM616.69 448.461L618.612 449.079L618.918 448.127L616.996 447.509L616.69 448.461ZM620.533 449.697L622.455 450.314L622.761 449.362L620.839 448.745L620.533 449.697ZM624.376 450.932L626.298 451.55L626.604 450.598L624.682 449.98L624.376 450.932ZM628.22 452.167L630.141 452.785L630.447 451.833L628.526 451.215L628.22 452.167ZM632.063 453.402L633.984 454.02L634.29 453.068L632.369 452.45L632.063 453.402ZM635.906 454.638L637.827 455.255L638.133 454.303L636.212 453.686L635.906 454.638ZM639.749 455.873L641.671 456.491L641.977 455.539L640.055 454.921L639.749 455.873ZM643.592 457.108L645.514 457.726L645.82 456.774L643.898 456.156L643.592 457.108ZM647.435 458.344L649.357 458.961L649.663 458.009L647.741 457.392L647.435 458.344ZM651.278 459.579L653.2 460.197L653.506 459.245L651.584 458.627L651.278 459.579ZM655.122 460.814L657.043 461.432L657.349 460.48L655.428 459.862L655.122 460.814ZM658.965 462.05L660.886 462.667L661.192 461.715L659.271 461.098L658.965 462.05ZM662.808 463.285L664.729 463.902L665.035 462.95L663.114 462.333L662.808 463.285ZM666.651 464.52L668.573 465.138L668.879 464.186L666.957 463.568L666.651 464.52ZM670.494 465.755L672.416 466.373L672.722 465.421L670.8 464.803L670.494 465.755ZM674.337 466.991L676.259 467.608L676.565 466.656L674.643 466.039L674.337 466.991ZM678.18 468.226L680.102 468.844L680.408 467.892L678.486 467.274L678.18 468.226ZM682.023 469.461L683.945 470.079L684.251 469.127L682.329 468.509L682.023 469.461ZM685.867 470.697L687.788 471.314L688.094 470.362L686.173 469.745L685.867 470.697ZM689.71 471.932L691.631 472.55L691.937 471.598L690.016 470.98L689.71 471.932ZM693.553 473.167L695.474 473.785L695.78 472.833L693.859 472.215L693.553 473.167ZM697.396 474.402L699.318 475.02L699.624 474.068L697.702 473.45L697.396 474.402ZM701.239 475.638L703.161 476.255L703.467 475.303L701.545 474.686L701.239 475.638ZM705.082 476.873L707.004 477.491L707.31 476.539L705.388 475.921L705.082 476.873ZM708.925 478.108L710.847 478.726L711.153 477.774L709.231 477.156L708.925 478.108ZM712.768 479.344L714.69 479.961L714.996 479.009L713.074 478.392L712.768 479.344ZM716.612 480.579L718.533 481.197L718.839 480.245L716.918 479.627L716.612 480.579ZM720.455 481.814L722.376 482.432L722.682 481.48L720.761 480.862L720.455 481.814ZM724.298 483.05L726.219 483.667L726.525 482.715L724.604 482.097L724.298 483.05ZM728.141 484.285L730.063 484.902L730.369 483.95L728.447 483.333L728.141 484.285ZM731.984 485.52L733.906 486.138L734.212 485.186L732.29 484.568L731.984 485.52ZM735.827 486.755L737.749 487.373L738.055 486.421L736.133 485.803L735.827 486.755ZM739.67 487.991L741.592 488.608L741.898 487.656L739.976 487.039L739.67 487.991ZM743.513 489.226L745.435 489.844L745.741 488.892L743.819 488.274L743.513 489.226ZM747.357 490.461L749.278 491.079L749.584 490.127L747.663 489.509L747.357 490.461ZM751.2 491.697L753.121 492.314L753.427 491.362L751.506 490.745L751.2 491.697ZM755.043 492.932L756.964 493.549L757.27 492.597L755.349 491.98L755.043 492.932ZM758.886 494.167L759.847 494.476L760.153 493.524L759.192 493.215L758.886 494.167Z" fill="#334155"/>
<path d="M-0.5 314.5H784.5M1069 314.5H784.5M1069 314.5V372M1069 314.5L1213.5 179.5V671M1234.5 60H293V554M784.5 314.5V372M784.5 314.5L919.5 179.5H716.5L919.5 -23.5M784.5 740.5H1069V671M784.5 740.5H417M784.5 740.5V671M1069 671H784.5M1069 671V372M1069 671H1213.5M1284.5 671H1213.5M417 740.5H293V554M417 740.5V947M784.5 671V372M784.5 372H1069M1213.5 776.5V671M293 554H577L818.5 1066L1213.5 671" stroke="#334155" stroke-dasharray="2 2"/>
<rect width="505" height="943" fill="url(#paint0_linear_577_22)"/>
</g>
<defs>
<linearGradient id="paint0_linear_577_22" x1="6.73154e-06" y1="471" x2="505" y2="471" gradientUnits="userSpaceOnUse">
<stop stop-color="#020617"/>
<stop offset="1" stop-color="#020617" stop-opacity="0"/>
</linearGradient>
<clipPath id="clip0_577_22">
<rect width="1286" height="943" fill="white"/>
</clipPath>
</defs>
</svg>
